# xmcd CD database file
#
# Track frame offsets:
#	150
#	15391
#	31463
#	49467
#	65090
#	78683
#	99089
#	121824
#	143728
#	168252
#	187803
#	205985
#	222045
#	237219
#	253024
#
# Disc length: 3574 seconds
#
# Revision: 0
# Processed by: cddbd v1.5.2PL0 Copyright (c) Steve Scherf et al.
# Submitted via: CDex 1.51
#
DISCID=c90df40f
DTITLE=Chesney, Kenny - Gretaest Hits II
DYEAR=2009
DGENRE=Country
TTITLE0=Out Last Night
TTITLE1=Living in Fast Forward
TTITLE2=Young
TTITLE3=Summertime
TTITLE4=Down The Road
TTITLE5=Berr In Mexico
TTITLE6=There Goes My Life
TTITLE7=When The Sun Goes Down
TTITLE8=Anything Bu Mine
TTITLE9=Be As You Are
TTITLE10=I Go Back
TTITLE11=No Shoes, No Shirt, No Problem
TTITLE12=The Good Stuff
TTITLE13=Never Wanted
TTITLE14=I'm Alive
EXTD=YEAR: 2009
EXTT0=
EXTT1=
EXTT2=
EXTT3=
EXTT4=
EXTT5=
EXTT6=
EXTT7=
EXTT8=
EXTT9=
EXTT10=
EXTT11=
EXTT12=
EXTT13=
EXTT14=
PLAYORDER=
